<svg width="24" height="24" viewBox="0 0 24 24" fill="none" xmlns="http://www.w3.org/2000/svg">
<path d="M8 2H5C3.34 2 2 3.34 2 5V8C2 9.66 3.34 11 5 11H8C9.66 11 11 9.66 11 8V5C11 3.34 9.66 2 8 2ZM9.5 8C9.5 8.83 8.83 9.5 8 9.5H5C4.17 9.5 3.5 8.83 3.5 8V5C3.5 4.17 4.17 3.5 5 3.5H8C8.83 3.5 9.5 4.17 9.5 5V8ZM19 2H16C14.34 2 13 3.34 13 5V8C13 9.66 14.34 11 16 11H19C20.66 11 22 9.66 22 8V5C22 3.34 20.66 2 19 2ZM20.5 8C20.5 8.83 19.83 9.5 19 9.5H16C15.17 9.5 14.5 8.83 14.5 8V5C14.5 4.17 15.17 3.5 16 3.5H19C19.83 3.5 20.5 4.17 20.5 5V8ZM8 13H5C3.34 13 2 14.34 2 16V19C2 20.66 3.34 22 5 22H8C9.66 22 11 20.66 11 19V16C11 14.34 9.66 13 8 13ZM9.5 19C9.5 19.83 8.83 20.5 8 20.5H5C4.17 20.5 3.5 19.83 3.5 19V16C3.5 15.17 4.17 14.5 5 14.5H8C8.83 14.5 9.5 15.17 9.5 16V19ZM20.5 16.75H18.25V14.5C18.25 14.09 17.91 13.75 17.5 13.75C17.09 13.75 16.75 14.09 16.75 14.5V16.75H14.5C14.09 16.75 13.75 17.09 13.75 17.5C13.75 17.91 14.09 18.25 14.5 18.25H16.75V20.5C16.75 20.91 17.09 21.25 17.5 21.25C17.91 21.25 18.25 20.91 18.25 20.5V18.25H20.5C20.91 18.25 21.25 17.91 21.25 17.5C21.25 17.09 20.91 16.75 20.5 16.75Z" fill="#9F9F9F"/>
</svg>
