<svg width="24" height="24" viewBox="0 0 24 24" fill="none" xmlns="http://www.w3.org/2000/svg">
<path d="M6.51675 9.40125C6.33773 9.40125 6.16604 9.47236 6.03945 9.59895C5.91287 9.72554 5.84175 9.89722 5.84175 10.0762C5.84175 10.2553 5.91287 10.427 6.03945 10.5535C6.16604 10.6801 6.33773 10.7512 6.51675 10.7512H13.7543C13.9333 10.7512 14.105 10.6801 14.2315 10.5535C14.3581 10.427 14.4293 10.2553 14.4293 10.0762C14.4293 9.89722 14.3581 9.72554 14.2315 9.59895C14.105 9.47236 13.9333 9.40125 13.7543 9.40125H6.51675ZM9.771 13.233H6.51675C6.33773 13.233 6.16604 13.3041 6.03945 13.4307C5.91287 13.5573 5.84175 13.729 5.84175 13.908C5.84175 14.087 5.91287 14.2587 6.03945 14.3853C6.16604 14.5119 6.33773 14.583 6.51675 14.583H9.771C9.95002 14.583 10.1217 14.5119 10.2483 14.3853C10.3749 14.2587 10.446 14.087 10.446 13.908C10.446 13.729 10.3749 13.5573 10.2483 13.4307C10.1217 13.3041 9.95002 13.233 9.771 13.233Z" fill="#9F9F9F"/>
<path d="M9.67125 21.8249H4.53375C4.00179 21.8236 3.49211 21.6111 3.11666 21.2342C2.7412 20.8574 2.53066 20.3469 2.53125 19.8149V6.14245C2.53066 5.61048 2.7412 5.10002 3.11666 4.72316C3.49211 4.34629 4.00179 4.13384 4.53375 4.13245H5.928V4.30195C5.9286 4.77531 6.11696 5.2291 6.45174 5.56374C6.78653 5.89839 7.24039 6.08655 7.71375 6.08695H14.1638C14.6371 6.08655 15.091 5.89839 15.4258 5.56374C15.7606 5.2291 15.9489 4.77531 15.9495 4.30195V4.13245H17.337C18.4598 4.13245 19.3388 5.0152 19.3388 6.14245V9.98995C19.3388 10.169 19.4099 10.3407 19.5365 10.4672C19.663 10.5938 19.8347 10.665 20.0138 10.665C20.1928 10.665 20.3645 10.5938 20.491 10.4672C20.6176 10.3407 20.6888 10.169 20.6888 9.98995V6.14245C20.6888 5.25262 20.3358 4.39913 19.7073 3.76922C19.0788 3.13931 18.2261 2.78444 17.3363 2.78245H15.9488V2.60995C15.9482 2.13659 15.7598 1.6828 15.425 1.34816C15.0902 1.01351 14.6364 0.825348 14.163 0.824951H7.713C7.23964 0.825348 6.78578 1.01351 6.45099 1.34816C6.1162 1.6828 5.92785 2.13659 5.92725 2.60995V2.78245H4.53375C3.64386 2.78444 2.79108 3.13929 2.16246 3.76917C1.53384 4.39906 1.1807 5.25255 1.1805 6.14245V19.8149C1.1805 21.6674 2.685 23.1749 4.53375 23.1749H9.67125C9.85027 23.1749 10.022 23.1038 10.1485 22.9772C10.2751 22.8507 10.3463 22.679 10.3463 22.4999C10.3463 22.3209 10.2751 22.1492 10.1485 22.0227C10.022 21.8961 9.85027 21.8249 9.67125 21.8249ZM7.27875 2.60995C7.27875 2.36995 7.47375 2.17495 7.71375 2.17495H14.1638C14.4038 2.17495 14.5988 2.36995 14.5988 2.60995V4.3012C14.5988 4.5412 14.4038 4.7362 14.1638 4.7362H7.71375C7.59838 4.7362 7.48774 4.69037 7.40616 4.60879C7.32458 4.52721 7.27875 4.41657 7.27875 4.3012V2.60995Z" fill="#9F9F9F"/>
<path d="M22.1025 13.0184C21.1785 12.0937 19.5653 12.0929 18.6405 13.0184L12.6563 19.0027C12.4641 19.1944 12.3366 19.4414 12.2918 19.7092L11.9633 21.6509C11.9286 21.8564 11.9437 22.0672 12.0071 22.2657C12.0706 22.4642 12.1806 22.6447 12.328 22.792C12.4754 22.9393 12.6559 23.0492 12.8544 23.1126C13.053 23.176 13.2638 23.1909 13.4693 23.1562L15.4103 22.8284C15.6795 22.7827 15.924 22.6567 16.1168 22.4639L22.101 16.4797C22.5593 16.0204 22.8169 15.3982 22.8171 14.7494C22.8174 14.1005 22.5604 13.4781 22.1025 13.0184ZM15.186 21.4979L13.2953 21.8752L13.6118 19.9574L17.901 15.6682L19.4543 17.2214L15.186 21.4979ZM21.147 15.5249L20.4075 16.2659L18.855 14.7134L19.5953 13.9732C19.6969 13.871 19.8177 13.79 19.9508 13.7347C20.0839 13.6795 20.2267 13.6512 20.3708 13.6514C20.5877 13.6516 20.7998 13.7161 20.9801 13.8367C21.1605 13.9574 21.301 14.1287 21.3841 14.3291C21.4671 14.5296 21.4889 14.7501 21.4467 14.963C21.4045 15.1758 21.3002 15.3713 21.147 15.5249Z" fill="#9F9F9F"/>
</svg>
