<svg width="24" height="24" viewBox="0 0 24 24" fill="none" xmlns="http://www.w3.org/2000/svg">
<g clip-path="url(#clip0_14_691)">
<path d="M10.2798 24C4.61149 24 0 19.3885 0 13.7202C0 8.05192 4.61149 3.44043 10.2798 3.44043C10.6836 3.44043 11.011 3.76786 11.011 4.17169V12.989H19.8283C20.2321 12.989 20.5596 13.3164 20.5596 13.7202C20.5595 19.3885 15.948 24 10.2798 24ZM9.54853 4.93301C5.0276 5.30601 1.46252 9.10469 1.46252 13.7202C1.46252 18.582 5.41792 22.5375 10.2798 22.5375C14.8953 22.5375 18.694 18.9725 19.067 14.4515H10.2798C9.87596 14.4515 9.54853 14.124 9.54853 13.7202V4.93301Z" fill="#9F9F9F"/>
<path d="M23.2687 11.011H13.7202C13.3164 11.011 12.989 10.6836 12.989 10.2798V0.731258C12.989 0.327428 13.3164 0 13.7202 0C19.3885 0 24 4.61149 24 10.2798C24 10.6836 23.6726 11.011 23.2687 11.011ZM14.4515 9.54853H22.5074C22.1543 5.26886 18.7311 1.84569 14.4515 1.49258V9.54853Z" fill="#9F9F9F"/>
</g>
<defs>
<clipPath id="clip0_14_691">
<rect width="24" height="24" fill="white"/>
</clipPath>
</defs>
</svg>
