<svg width="40" height="40" viewBox="0 0 40 40" fill="none" xmlns="http://www.w3.org/2000/svg">
<g id="Frame">
<g id="Group">
<g id="avatar-man-young-account-profile">
<path id="Vector" d="M18.125 11.875H19.375C19.375 11.3777 19.1775 10.9008 18.8258 10.5492C18.4742 10.1975 17.9973 10 17.5 10C17.0027 10 16.5258 10.1975 16.1742 10.5492C15.8225 10.9008 15.625 11.3777 15.625 11.875H16.875C16.875 11.7092 16.9408 11.5503 17.0581 11.4331C17.1753 11.3158 17.3342 11.25 17.5 11.25C17.6658 11.25 17.8247 11.3158 17.9419 11.4331C18.0592 11.5503 18.125 11.7092 18.125 11.875ZM22.5 11.25C22.6658 11.25 22.8247 11.3158 22.9419 11.4331C23.0592 11.5503 23.125 11.7092 23.125 11.875H24.375C24.375 11.3777 24.1775 10.9008 23.8258 10.5492C23.4742 10.1975 22.9973 10 22.5 10C22.0027 10 21.5258 10.1975 21.1742 10.5492C20.8225 10.9008 20.625 11.3777 20.625 11.875H21.875C21.875 11.7092 21.9408 11.5503 22.0581 11.4331C22.1753 11.3158 22.3342 11.25 22.5 11.25ZM22.7069 15.3125L21.6244 14.6875C21.46 14.9731 21.2232 15.2103 20.9379 15.3753C20.6526 15.5402 20.3289 15.6271 19.9994 15.6271C19.6698 15.6271 19.3461 15.5402 19.0608 15.3753C18.7755 15.2103 18.5388 14.9731 18.3744 14.6875L17.2919 15.3125C17.5661 15.7878 17.9606 16.1826 18.4358 16.457C18.9109 16.7315 19.45 16.8759 19.9987 16.8759C20.5475 16.8759 21.0866 16.7315 21.5617 16.457C22.0369 16.1826 22.4314 15.7878 22.7056 15.3125H22.7069Z" fill="#0C374F"/>
<path id="Vector_2" d="M29.3312 22.0688L23.75 21.325V18.8812C24.6186 18.3139 25.3479 17.5578 25.8836 16.6694C26.4192 15.7809 26.7475 14.783 26.8438 13.75H26.875C27.4829 13.7507 28.0701 13.5296 28.5265 13.1281C28.9828 12.7266 29.277 12.1723 29.3537 11.5693C29.4304 10.9664 29.2844 10.3561 28.9431 9.85311C28.6018 9.35012 28.0887 8.98899 27.5 8.8375V6.875C27.5028 6.18283 27.274 5.5096 26.85 4.9625C27.2557 4.55745 27.5773 4.0761 27.7961 3.54619C28.0149 3.01629 28.1267 2.44831 28.125 1.875C28.125 1.70924 28.0592 1.55027 27.9419 1.43306C27.8247 1.31585 27.6658 1.25 27.5 1.25H17.5C16.0089 1.25231 14.5795 1.84569 13.5251 2.90008C12.4707 3.95447 11.8773 5.38387 11.875 6.875V9.1C11.3991 9.37411 11.0271 9.79779 10.8169 10.3052C10.6067 10.8125 10.57 11.3751 10.7126 11.9055C10.8551 12.4359 11.169 12.9042 11.6053 13.2378C12.0415 13.5714 12.5758 13.7515 13.125 13.75H13.1562C13.2525 14.783 13.5808 15.7809 14.1164 16.6694C14.6521 17.5578 15.3814 18.3139 16.25 18.8812V21.325L10.6687 22.0688C9.61996 22.2135 8.65867 22.7319 7.96165 23.5288C7.26464 24.3258 6.87877 25.3475 6.875 26.4062V38.125C6.875 38.2908 6.94085 38.4497 7.05806 38.5669C7.17527 38.6842 7.33424 38.75 7.5 38.75H32.5C32.6658 38.75 32.8247 38.6842 32.9419 38.5669C33.0592 38.4497 33.125 38.2908 33.125 38.125V26.4062C33.1212 25.3475 32.7354 24.3258 32.0383 23.5288C31.3413 22.7319 30.38 22.2135 29.3312 22.0688ZM26.875 10C27.2062 10.001 27.5236 10.133 27.7578 10.3672C27.992 10.6014 28.124 10.9188 28.125 11.25C28.1225 11.5808 27.9901 11.8973 27.7562 12.1312C27.5223 12.3651 27.2058 12.4975 26.875 12.5V10ZM24.1187 22.6375L23.9 24.3937L21.6875 22.5H23.0812L24.1187 22.6375ZM17.5 21.25V19.525C19.1065 20.1584 20.8935 20.1584 22.5 19.525V21.25H17.5ZM21.4125 23.9062L20.8625 25H19.1375L18.5875 23.9062L20 22.7L21.4125 23.9062ZM13.125 12.5C12.7942 12.4975 12.4777 12.3651 12.2438 12.1312C12.0099 11.8973 11.8775 11.5808 11.875 11.25C11.876 10.9188 12.008 10.6014 12.2422 10.3672C12.4764 10.133 12.7938 10.001 13.125 10V12.5ZM13.125 8.75V6.875C13.1263 5.71508 13.5877 4.60305 14.4079 3.78287C15.2281 2.96268 16.3401 2.50132 17.5 2.5H26.8125C26.6933 3.10146 26.3948 3.65274 25.9562 4.08125C25.8429 4.20051 25.7172 4.30736 25.5812 4.4C25.4998 4.45491 25.4325 4.52823 25.3848 4.61402C25.337 4.6998 25.3101 4.79563 25.3063 4.89375C25.3024 4.99189 25.3219 5.08954 25.3632 5.17865C25.4045 5.26776 25.4664 5.34577 25.5437 5.40625C25.7651 5.58156 25.9436 5.80486 26.066 6.05931C26.1883 6.31375 26.2513 6.59267 26.25 6.875V8.75C25.7532 8.74852 25.2771 8.5505 24.9258 8.19919C24.5745 7.84788 24.3765 7.37182 24.375 6.875V6.4C24.3753 6.20524 24.3295 6.01316 24.2416 5.8394C24.1536 5.66563 24.0259 5.51509 23.8687 5.4C23.708 5.28245 23.5216 5.20472 23.3249 5.17321C23.1283 5.1417 22.927 5.15731 22.7375 5.21875C20.9512 5.75001 19.0488 5.75001 17.2625 5.21875C17.073 5.15731 16.8717 5.1417 16.6751 5.17321C16.4784 5.20472 16.292 5.28245 16.1312 5.4C15.9741 5.51509 15.8464 5.66563 15.7584 5.8394C15.6705 6.01316 15.6247 6.20524 15.625 6.4V6.875C15.6235 7.37182 15.4255 7.84788 15.0742 8.19919C14.7229 8.5505 14.2468 8.74852 13.75 8.75H13.125ZM14.375 13.125V9.9375C15.0799 9.79157 15.7132 9.40753 16.1684 8.84987C16.6237 8.2922 16.8732 7.59488 16.875 6.875L16.8813 6.40625C18.9171 7.02295 21.0904 7.02077 23.125 6.4V6.875C23.1268 7.59488 23.3763 8.2922 23.8316 8.84987C24.2868 9.40753 24.9201 9.79157 25.625 9.9375V13.125C25.625 14.6168 25.0324 16.0476 23.9775 17.1025C22.9226 18.1574 21.4918 18.75 20 18.75C18.5082 18.75 17.0774 18.1574 16.0225 17.1025C14.9676 16.0476 14.375 14.6168 14.375 13.125ZM16.9187 22.5H18.3125L16.1 24.3937L15.8813 22.6375L16.9187 22.5ZM13.125 37.5V28.125H11.875V37.5H8.125V26.4062C8.12831 25.6502 8.40461 24.9209 8.90302 24.3524C9.40143 23.7839 10.0884 23.4146 10.8375 23.3125L14.6438 22.8L15.0063 25.7C15.02 25.812 15.0638 25.9181 15.133 26.0072C15.2023 26.0962 15.2943 26.1649 15.3994 26.2059C15.5044 26.2469 15.6187 26.2587 15.7299 26.2401C15.8412 26.2214 15.9453 26.173 16.0312 26.1L17.6125 24.7437L18.1062 25.7375L16.8813 35.55C16.8688 35.6441 16.878 35.7398 16.9084 35.8297C16.9387 35.9197 16.9893 36.0014 17.0563 36.0687L18.4937 37.5H13.125ZM18.1562 35.4L19.3 26.25H20.7L21.8438 35.4L20 37.2438L18.1562 35.4ZM31.875 37.5H28.125V28.125H26.875V37.5H21.5063L22.9437 36.0687C23.0107 36.0014 23.0613 35.9197 23.0916 35.8297C23.122 35.7398 23.1312 35.6441 23.1188 35.55L21.8937 25.7375L22.3875 24.7437L23.9688 26.1C24.0816 26.1975 24.2259 26.2507 24.375 26.25C24.4522 26.2506 24.5287 26.2358 24.6 26.2062C24.7058 26.1661 24.7985 26.0977 24.8679 26.0084C24.9374 25.9191 24.9809 25.8124 24.9938 25.7L25.3563 22.8L29.1625 23.3125C29.9116 23.4146 30.5986 23.7839 31.097 24.3524C31.5954 24.9209 31.8717 25.6502 31.875 26.4062V37.5Z" fill="#0C374F"/>
</g>
</g>
</g>
</svg>
