<svg width="40" height="40" viewBox="0 0 40 40" fill="none" xmlns="http://www.w3.org/2000/svg">
<g id="Frame" clip-path="url(#clip0_19_4964)">
<g id="Group">
<path id="Vector" d="M33.1013 24.0586L26.058 28.161C25.7049 28.3667 25.3458 28.5119 24.971 28.5985C25.1099 28.3758 25.2187 28.1239 25.2934 27.845C25.6534 26.5012 24.8547 25.0982 23.475 24.6509C23.4483 24.6422 23.4209 24.6353 23.3932 24.6303C21.3689 24.2653 19.371 23.5429 17.7656 22.9625C17.2078 22.7609 16.6811 22.5704 16.2332 22.4253C14.4302 21.8403 12.8 22.5645 11.4432 23.3499L6.203 26.3839L5.70894 25.5109C5.49089 25.1255 5.13472 24.8479 4.70612 24.7291C4.27769 24.6103 3.82933 24.6649 3.44394 24.8831L1.46776 26.0016C1.0823 26.2197 0.804639 26.5758 0.685811 27.0044C0.566983 27.433 0.621749 27.8813 0.839874 28.2666L6.6498 38.5324C6.86784 38.9177 7.22402 39.1953 7.65261 39.3142C7.80081 39.3553 7.95136 39.3756 8.10089 39.3756C8.3837 39.3756 8.66269 39.3028 8.9148 39.1602L10.891 38.0417C11.2764 37.8236 11.554 37.4675 11.6728 37.0389C11.7917 36.6103 11.7369 36.1621 11.5188 35.7767L10.9198 34.7183L12.1143 34.0286L21.1354 36.4458C21.6449 36.5824 22.145 36.6506 22.6344 36.6506C23.61 36.6506 24.5427 36.3796 25.4204 35.8392L38.2025 27.9685C39.3676 27.2512 39.7373 25.4432 38.9779 24.1753C38.6092 23.5599 37.0962 21.7321 33.1013 24.0586ZM10.4683 36.705C10.4542 36.7572 10.4299 36.8061 10.3967 36.8488C10.3636 36.8915 10.3224 36.9272 10.2753 36.9539L8.29909 38.0723C8.10495 38.1824 7.84776 38.1112 7.73753 37.9167L1.92769 27.651C1.90112 27.6039 1.88415 27.552 1.87775 27.4984C1.87136 27.4447 1.87566 27.3903 1.89042 27.3383C1.90452 27.2861 1.92884 27.2373 1.96197 27.1946C1.99509 27.1518 2.03636 27.1161 2.08339 27.0895L4.05956 25.971C4.12059 25.9365 4.18956 25.9183 4.25972 25.9184C4.29714 25.9184 4.33495 25.9235 4.37222 25.9339C4.42439 25.948 4.47325 25.9723 4.51598 26.0054C4.5587 26.0385 4.59444 26.0797 4.62112 26.1267L10.431 36.3925C10.4576 36.4396 10.4746 36.4914 10.481 36.545C10.4874 36.5987 10.4831 36.6531 10.4683 36.705ZM37.5471 26.9042L24.765 34.7748C23.7514 35.3989 22.6391 35.5549 21.459 35.2385L12.1878 32.7542C12.0277 32.7115 11.8572 32.7339 11.7136 32.8167L10.3042 33.6304L6.8187 27.4718L12.0695 24.4317C13.244 23.7516 14.5149 23.1819 15.8475 23.6142C16.2757 23.7531 16.7692 23.9315 17.3405 24.1381C18.9785 24.7303 21.0141 25.4662 23.1262 25.8523C23.8622 26.1095 24.2738 26.8205 24.086 27.5215C23.8388 28.4439 23.07 28.5584 22.4591 28.4882C21.4216 28.2749 20.4357 27.9935 19.3925 27.6957C18.8979 27.5543 18.3864 27.4083 17.8607 27.2674C17.5275 27.1783 17.1846 27.376 17.0952 27.7094C17.0739 27.7887 17.0685 27.8714 17.0792 27.9527C17.09 28.0341 17.1166 28.1126 17.1576 28.1837C17.1987 28.2547 17.2533 28.317 17.3184 28.367C17.3835 28.417 17.4579 28.4536 17.5371 28.4749C18.053 28.6131 18.5595 28.7578 19.0492 28.8976C20.1243 29.2046 21.1398 29.4946 22.2333 29.7182C22.2375 29.719 22.2416 29.7193 22.2458 29.72C22.25 29.7207 22.2539 29.722 22.2582 29.7227L23.134 29.8651C24.4437 30.0747 25.6062 29.8707 26.6871 29.2411L33.7304 25.1387C35.7578 23.9578 37.3187 23.8378 37.9055 24.8175C38.3099 25.4928 38.129 26.5459 37.5471 26.9042ZM4.63292 27.9537C4.64632 28.0454 4.64154 28.1388 4.61884 28.2286C4.59613 28.3185 4.55596 28.403 4.50061 28.4773C4.44526 28.5516 4.37581 28.6143 4.29623 28.6617C4.21666 28.7092 4.12851 28.7405 4.03683 28.7539C3.94514 28.7673 3.85172 28.7626 3.76188 28.7398C3.67205 28.7171 3.58756 28.677 3.51325 28.6216C3.43895 28.5663 3.37627 28.4968 3.3288 28.4172C3.28133 28.3377 3.25 28.2495 3.23659 28.1578C3.21165 27.9737 3.26037 27.7871 3.37218 27.6386C3.48399 27.4902 3.64985 27.3918 3.83376 27.3649C4.01766 27.338 4.20474 27.3848 4.35437 27.495C4.504 27.6053 4.6041 27.7701 4.63292 27.9537ZM39.375 4.84167V3.6519C39.375 2.4137 38.3676 1.40628 37.1295 1.40628H26.9436C25.7054 1.40628 24.6981 2.4137 24.6981 3.6519V4.84167C24.6981 5.47815 24.9647 6.05323 25.3916 6.46229C24.9647 6.87128 24.6981 7.44635 24.6981 8.08284V9.2726C24.6981 9.36167 24.7037 9.45057 24.7143 9.53885C21.4439 10.2778 18.9942 13.2067 18.9942 16.6972C18.9942 20.7437 22.2863 24.0357 26.3328 24.0357C29.0379 24.0357 31.4056 22.5642 32.6782 20.3799H37.1295C38.3677 20.3799 39.375 19.3726 39.375 18.1344V16.9446C39.375 16.3081 39.1084 15.733 38.6815 15.324C39.1084 14.915 39.375 14.3399 39.375 13.7035V12.5137C39.375 11.8772 39.1084 11.3022 38.6815 10.8932C39.1084 10.4842 39.375 9.90909 39.375 9.2726V8.08284C39.375 7.44635 39.1084 6.87136 38.6815 6.46229C39.1084 6.05323 39.375 5.47815 39.375 4.84167ZM26.3328 22.7857C22.9755 22.7857 20.2442 20.0544 20.2442 16.6971C20.2442 13.3399 22.9755 10.6086 26.3328 10.6086C29.69 10.6086 32.4213 13.3399 32.4213 16.6971C32.4213 20.0544 29.69 22.7857 26.3328 22.7857ZM38.125 16.9446V18.1343C38.125 18.6832 37.6784 19.1299 37.1295 19.1299H33.2562C33.5315 18.3484 33.6718 17.5257 33.6712 16.6971C33.6712 16.4446 33.6584 16.195 33.6333 15.9489H37.1294C37.6784 15.9489 38.125 16.3956 38.125 16.9446ZM38.125 12.5136V13.7034C38.125 14.2523 37.6784 14.6989 37.1295 14.6989H33.3946C33.0496 13.481 32.3971 12.3909 31.5269 11.5181H37.1295C37.6784 11.5182 38.125 11.9647 38.125 12.5136ZM38.125 8.08276V9.27253C38.125 9.82151 37.6784 10.2681 37.1295 10.2681H29.868C28.8188 9.68878 27.6137 9.35854 26.3328 9.35854C26.2057 9.35854 26.0793 9.36182 25.9539 9.36823C25.9504 9.33644 25.9485 9.3045 25.9481 9.27253V8.08276C25.9481 7.53385 26.3947 7.08721 26.9436 7.08721H37.1295C37.6784 7.08721 38.125 7.53385 38.125 8.08276ZM26.9436 5.83721C26.3947 5.83721 25.9481 5.39057 25.9481 4.84159V3.6519C25.9481 3.10292 26.3947 2.65628 26.9436 2.65628H37.1295C37.6784 2.65628 38.125 3.10292 38.125 3.6519V4.84167C38.125 5.39065 37.6784 5.83729 37.1295 5.83729L26.9436 5.83721ZM29.0951 18.1933C29.1647 18.7667 29.0101 19.2909 28.6481 19.7094C28.266 20.151 27.656 20.4578 26.9577 20.5722V20.9454C26.9577 21.1112 26.8918 21.2701 26.7746 21.3874C26.6574 21.5046 26.4984 21.5704 26.3327 21.5704C26.1669 21.5704 26.008 21.5046 25.8907 21.3874C25.7735 21.2701 25.7077 21.1112 25.7077 20.9454V20.5622C24.6407 20.3588 23.8203 19.648 23.5725 18.6542C23.5333 18.4936 23.5592 18.3241 23.6447 18.1826C23.7301 18.0411 23.8682 17.9393 24.0285 17.8993C24.1889 17.8594 24.3586 17.8845 24.5004 17.9694C24.6423 18.0542 24.7447 18.1917 24.7854 18.3519C24.9789 19.1281 25.7792 19.3845 26.4053 19.371C26.9528 19.358 27.462 19.1698 27.7025 18.8917C27.833 18.7408 27.8811 18.5668 27.8541 18.3439C27.8085 17.9692 27.5836 17.5107 26.2375 17.2897C24.2753 16.9674 23.8172 15.9474 23.7785 15.1483C23.7247 14.0428 24.4911 13.1181 25.6853 12.8471L25.7075 12.8422V12.4488C25.7075 12.283 25.7734 12.124 25.8906 12.0068C26.0078 11.8896 26.1668 11.8238 26.3325 11.8238C26.4983 11.8238 26.6573 11.8896 26.7745 12.0068C26.8917 12.124 26.9575 12.283 26.9575 12.4488V12.8367C27.7428 12.9989 28.4957 13.4877 28.8853 14.4157C28.9494 14.5685 28.9503 14.7405 28.8876 14.894C28.8249 15.0474 28.7039 15.1697 28.551 15.2339C28.3982 15.298 28.2261 15.2989 28.0727 15.2362C27.9192 15.1735 27.797 15.0524 27.7328 14.8996C27.4056 14.1205 26.6078 13.9198 25.9618 14.0661C25.4911 14.1729 24.9983 14.4974 25.0269 15.0876C25.0367 15.2907 25.063 15.83 26.4399 16.0561C28.0619 16.3224 28.9552 17.0414 29.0951 18.1933ZM13.1593 6.5626H14.3631V14.2924C14.3631 14.4581 14.4289 14.6171 14.5461 14.7343C14.6633 14.8515 14.8223 14.9174 14.9881 14.9174H17.5188C17.6845 14.9174 17.8435 14.8515 17.9607 14.7343C18.0779 14.6171 18.1438 14.4581 18.1438 14.2924V6.5626H19.3475C19.4604 6.56258 19.5712 6.532 19.6681 6.4741C19.7649 6.4162 19.8444 6.33314 19.8978 6.23375C19.9513 6.13436 19.9769 6.02233 19.9719 5.90957C19.9668 5.79681 19.9313 5.68753 19.8692 5.59331L16.7751 0.905731C16.7181 0.819493 16.6406 0.748728 16.5496 0.699769C16.4586 0.650809 16.3568 0.625183 16.2535 0.625183C16.1501 0.625183 16.0484 0.650809 15.9573 0.699769C15.8663 0.748728 15.7888 0.819493 15.7318 0.905731L12.6378 5.59331C12.5756 5.68752 12.5401 5.7968 12.5351 5.90955C12.53 6.02231 12.5556 6.13432 12.6091 6.23372C12.6626 6.33311 12.742 6.41616 12.8388 6.47407C12.9357 6.53197 13.0465 6.56257 13.1593 6.5626ZM16.2535 2.38456L18.1861 5.31261H17.5188C17.353 5.31261 17.194 5.37845 17.0768 5.49566C16.9596 5.61287 16.8938 5.77184 16.8938 5.9376V13.6674H15.6131V5.9376C15.6131 5.77184 15.5472 5.61287 15.43 5.49566C15.3128 5.37845 15.1538 5.31261 14.9881 5.31261H14.3207L16.2535 2.38456Z" fill="#0C374F"/>
</g>
</g>
<defs>
<clipPath id="clip0_19_4964">
<rect width="40" height="40" fill="white"/>
</clipPath>
</defs>
</svg>
