<svg width="40" height="40" viewBox="0 0 40 40" fill="none" xmlns="http://www.w3.org/2000/svg">
<g id="Frame">
<g id="Group">
<path id="Vector" d="M36.6237 28.3825V18.0013L36.92 17.8288C37.5487 17.4638 37.9238 16.8125 37.9238 16.0863C37.9238 15.36 37.5487 14.7075 36.92 14.3425L21.7237 5.51502C21.0936 5.14929 20.378 4.95667 19.6494 4.95667C18.9208 4.95667 18.2051 5.14929 17.575 5.51502L2.3775 14.3438C1.75 14.7088 1.375 15.36 1.375 16.0863C1.375 16.8125 1.75 17.4638 2.3775 17.83L6.985 20.5075V26.7313C6.98606 27.4426 7.17389 28.1412 7.5297 28.7572C7.88551 29.3732 8.39683 29.8849 9.0125 30.2413L15.355 33.8975C16.6788 34.66 18.1637 35.0425 19.6488 35.0425C21.1337 35.0425 22.6175 34.6613 23.9425 33.8975L30.2837 30.2413C30.8998 29.8853 31.4115 29.3736 31.7676 28.7576C32.1236 28.1416 32.3116 27.4428 32.3125 26.7313V20.5063L34.3737 19.3088V28.3825C34.0198 28.6231 33.7523 28.9708 33.6105 29.3746C33.4687 29.7785 33.4601 30.2171 33.586 30.6261C33.7119 31.0352 33.9655 31.3931 34.3098 31.6474C34.6541 31.9017 35.0708 32.0389 35.4987 32.0389C35.9267 32.0389 36.3434 31.9017 36.6877 31.6474C37.032 31.3931 37.2856 31.0352 37.4115 30.6261C37.5374 30.2171 37.5288 29.7785 37.387 29.3746C37.2452 28.9708 36.9777 28.6231 36.6237 28.3825ZM30.0638 26.73H30.0625C30.0625 27.3725 29.7188 27.97 29.1613 28.29L22.82 31.9463C21.8552 32.4997 20.7623 32.7909 19.65 32.7909C18.5377 32.7909 17.4448 32.4997 16.48 31.9463L10.1375 28.29C9.86372 28.1318 9.63634 27.9044 9.47816 27.6306C9.31998 27.3568 9.23655 27.0462 9.23625 26.73V21.8138L17.575 26.6588C18.2054 27.0245 18.9212 27.2171 19.65 27.2171C20.3788 27.2171 21.0946 27.0245 21.725 26.6588L30.0638 21.8138V26.73ZM20.5938 24.7138C20.3068 24.8802 19.981 24.9678 19.6494 24.9678C19.3177 24.9678 18.9919 24.8802 18.705 24.7138L3.85625 16.0863L18.7038 7.45877C18.9907 7.29238 19.3165 7.20475 19.6481 7.20475C19.9798 7.20475 20.3056 7.29238 20.5925 7.45877L35.4412 16.085L20.5938 24.7138Z" fill="#0C374F"/>
</g>
</g>
</svg>
