<svg width="40" height="40" viewBox="0 0 40 40" fill="none" xmlns="http://www.w3.org/2000/svg">
<g id="Frame" clip-path="url(#clip0_19_4945)">
<g id="Group">
<path id="Vector" d="M5.58183 25.9508C5.31299 25.9508 5.05516 25.844 4.86507 25.6539C4.67497 25.4638 4.56818 25.206 4.56818 24.9372V17.7064C4.56818 17.4376 4.67497 17.1798 4.86507 16.9897C5.05516 16.7996 5.31299 16.6928 5.58183 16.6928C5.85066 16.6928 6.10849 16.7996 6.29859 16.9897C6.48868 17.1798 6.59548 17.4376 6.59548 17.7064V24.9372C6.59548 25.206 6.48868 25.4638 6.29859 25.6539C6.10849 25.844 5.85066 25.9508 5.58183 25.9508ZM10.1493 9.80538C9.17968 9.80538 8.23179 9.51784 7.42555 8.97913C6.6193 8.44041 5.99091 7.67472 5.61984 6.77887C5.24877 5.88302 5.15168 4.89725 5.34085 3.94622C5.53002 2.9952 5.99696 2.12162 6.68261 1.43597C7.36826 0.750313 8.24184 0.283377 9.19287 0.094206C10.1439 -0.0949653 11.1297 0.00212424 12.0255 0.373197C12.9214 0.74427 13.6871 1.37266 14.2258 2.1789C14.7645 2.98515 15.052 3.93303 15.052 4.90269C15.0506 6.20253 14.5336 7.44871 13.6145 8.36784C12.6954 9.28696 11.4492 9.80395 10.1493 9.80538ZM10.1493 2.0273C9.58064 2.0273 9.02471 2.19594 8.55186 2.51189C8.079 2.82785 7.71045 3.27692 7.49282 3.80233C7.27519 4.32774 7.21825 4.90588 7.3292 5.46365C7.44014 6.02142 7.714 6.53377 8.11613 6.9359C8.51826 7.33803 9.0306 7.61188 9.58838 7.72283C10.1461 7.83378 10.7243 7.77684 11.2497 7.5592C11.7751 7.34157 12.2242 6.97303 12.5401 6.50017C12.8561 6.02732 13.0247 5.47139 13.0247 4.90269C13.0238 4.14037 12.7206 3.40952 12.1816 2.87047C11.6425 2.33143 10.9117 2.0282 10.1493 2.0273ZM26.1333 17.3888C25.9375 17.389 25.7459 17.3324 25.5816 17.226C25.4173 17.1196 25.2874 16.968 25.2074 16.7893C25.1274 16.6107 25.1009 16.4127 25.131 16.2193C25.1611 16.0259 25.2466 15.8453 25.3771 15.6994L30.8846 9.52561C31.0638 9.32497 31.3154 9.20374 31.584 9.1886C31.8526 9.17346 32.1162 9.26563 32.3169 9.44486C32.5175 9.62408 32.6387 9.87567 32.6539 10.1443C32.669 10.4129 32.5768 10.6765 32.3976 10.8771L26.8901 17.0476C26.7952 17.1547 26.6787 17.2404 26.5482 17.2992C26.4178 17.3581 26.2763 17.3886 26.1333 17.3888Z" fill="#0C374F"/>
<path id="Vector_2" d="M36.959 26.5421H18.7721C18.5033 26.5421 18.2455 26.4353 18.0554 26.2452C17.8653 26.0551 17.7585 25.7973 17.7585 25.5284C17.7585 25.2596 17.8653 25.0018 18.0554 24.8117C18.2455 24.6216 18.5033 24.5148 18.7721 24.5148H36.959C37.2279 24.5148 37.4857 24.408 37.6758 24.2179C37.8659 24.0278 37.9727 23.77 37.9727 23.5011V3.0639C37.9727 2.79506 37.8659 2.53724 37.6758 2.34714C37.4857 2.15705 37.2279 2.05025 36.959 2.05025H17.0739C16.8051 2.05025 16.5473 1.94346 16.3572 1.75336C16.1671 1.56326 16.0603 1.30544 16.0603 1.0366C16.0603 0.767763 16.1671 0.509937 16.3572 0.319841C16.5473 0.129744 16.8051 0.0229492 17.0739 0.0229492H36.959C37.3584 0.0229492 37.7538 0.101606 38.1228 0.254428C38.4917 0.40725 38.8269 0.631245 39.1093 0.913623C39.3917 1.196 39.6157 1.53123 39.7685 1.90018C39.9213 2.26912 40 2.66456 40 3.0639V23.5011C40 24.3076 39.6796 25.0811 39.1093 25.6514C38.539 26.2217 37.7655 26.5421 36.959 26.5421ZM10.1493 40.0007H5.58183C5.31299 40.0007 5.05516 39.8939 4.86507 39.7038C4.67497 39.5137 4.56818 39.2558 4.56818 38.987V24.9371C4.56818 24.6683 4.67497 24.4105 4.86507 24.2204C5.05516 24.0303 5.31299 23.9235 5.58183 23.9235C5.85066 23.9235 6.10849 24.0303 6.29859 24.2204C6.48868 24.4105 6.59548 24.6683 6.59548 24.9371V37.9734H10.1493C10.4182 37.9734 10.676 38.0801 10.8661 38.2702C11.0562 38.4603 11.163 38.7182 11.163 38.987C11.163 39.2558 11.0562 39.5137 10.8661 39.7038C10.676 39.8939 10.4182 40.0007 10.1493 40.0007Z" fill="#0C374F"/>
<path id="Vector_3" d="M14.7175 40.0007H10.1493C9.88051 40.0007 9.62268 39.8939 9.43259 39.7038C9.24249 39.5137 9.13569 39.2559 9.13569 38.987V25.5284C9.13569 25.2596 9.24249 25.0018 9.43259 24.8117C9.62268 24.6216 9.88051 24.5148 10.1493 24.5148C10.4182 24.5148 10.676 24.6216 10.8661 24.8117C11.0562 25.0018 11.163 25.2596 11.163 25.5284V37.9734H13.7039V18.8086C13.7038 18.3879 13.8285 17.9767 14.0622 17.6269C14.296 17.2771 14.6282 17.0044 15.0169 16.8435C15.4056 16.6825 15.8332 16.6405 16.2458 16.7226C16.6584 16.8048 17.0374 17.0075 17.3348 17.305L18.9235 18.8917C19.0412 19.01 19.1812 19.1037 19.3353 19.1675C19.4895 19.2313 19.6548 19.2639 19.8216 19.2634H24.5391C24.7082 19.2634 24.8756 19.2297 25.0315 19.1642C25.1873 19.0988 25.3286 19.0028 25.4469 18.882C25.5652 18.7613 25.6583 18.6181 25.7205 18.4609C25.7828 18.3037 25.8131 18.1357 25.8096 17.9666C25.7954 17.2807 25.2054 16.7232 24.4945 16.7232H20.765C20.4962 16.723 20.2386 16.616 20.0487 16.4259L17.8666 14.2445C17.4707 13.8463 16.9998 13.5307 16.481 13.3158C15.9623 13.101 15.406 12.9913 14.8446 12.993H14.058L12.526 14.2668C11.8586 14.8215 11.0182 15.1251 10.1504 15.1251C9.28255 15.1251 8.44209 14.8215 7.7747 14.2668L6.24138 12.993H5.58184C4.63944 12.994 3.73596 13.3689 3.06959 14.0353C2.40321 14.7016 2.02837 15.6051 2.0273 16.5475C2.0273 16.8163 1.92051 17.0742 1.73041 17.2643C1.54031 17.4544 1.28249 17.5612 1.01365 17.5612C0.744814 17.5612 0.486988 17.4544 0.296891 17.2643C0.106795 17.0742 0 16.8163 0 16.5475C0.00160985 15.0676 0.590211 13.6488 1.63666 12.6023C2.68311 11.5559 4.10193 10.9673 5.58184 10.9657H6.60765C6.84443 10.9657 7.07371 11.0487 7.25571 11.2002L9.06947 12.7078C9.37304 12.9606 9.75562 13.0991 10.1507 13.0991C10.5458 13.0991 10.9284 12.9606 11.2319 12.7078L13.0443 11.1995C13.2263 11.048 13.4556 10.9651 13.6924 10.965H14.8459C15.6737 10.9627 16.4937 11.1246 17.2585 11.4414C18.0232 11.7582 18.7176 12.2236 19.3013 12.8105L21.1866 14.6959H24.4979C26.3049 14.6959 27.8038 16.1447 27.8396 17.9261C27.8485 18.3647 27.7698 18.8006 27.6081 19.2085C27.4464 19.6163 27.2049 19.9877 26.8979 20.301C26.5909 20.6144 26.2244 20.8633 25.8199 21.0332C25.4155 21.2032 24.9812 21.2907 24.5425 21.2907H19.8189C19.3857 21.2919 18.9566 21.2072 18.5564 21.0415C18.1563 20.8757 17.7929 20.6322 17.4875 20.325L15.9015 18.737C15.8885 18.7241 15.8723 18.715 15.8546 18.7106C15.8368 18.7062 15.8183 18.7067 15.8008 18.712C15.781 18.7187 15.7638 18.7314 15.7517 18.7484C15.7396 18.7653 15.7331 18.7857 15.7332 18.8066V38.985C15.7335 39.1185 15.7074 39.2506 15.6564 39.374C15.6055 39.4973 15.5307 39.6094 15.4363 39.7038C15.342 39.7981 15.2299 39.873 15.1065 39.9239C14.9832 39.9748 14.851 40.0009 14.7175 40.0007Z" fill="#0C374F"/>
<path id="Vector_4" d="M3.29774 28.235C2.4234 28.2341 1.58513 27.8863 0.966874 27.2681C0.348621 26.6498 0.000894467 25.8116 0 24.9372L0 16.5469C0 16.2781 0.106795 16.0202 0.296891 15.8301C0.486988 15.64 0.744814 15.5332 1.01365 15.5332C1.28249 15.5332 1.54031 15.64 1.73041 15.8301C1.92051 16.0202 2.0273 16.2781 2.0273 16.5469V24.9372C2.0273 25.1041 2.06016 25.2693 2.12401 25.4234C2.18785 25.5775 2.28143 25.7176 2.3994 25.8356C2.51738 25.9535 2.65743 26.0471 2.81157 26.111C2.9657 26.1748 3.13091 26.2077 3.29774 26.2077C3.46458 26.2077 3.62978 26.1748 3.78392 26.111C3.93806 26.0471 4.07811 25.9535 4.19608 25.8356C4.31405 25.7176 4.40763 25.5775 4.47148 25.4234C4.53532 25.2693 4.56818 25.1041 4.56818 24.9372C4.56818 24.6684 4.67498 24.4106 4.86508 24.2205C5.05517 24.0304 5.313 23.9236 5.58184 23.9236C5.85067 23.9236 6.1085 24.0304 6.29859 24.2205C6.48869 24.4106 6.59549 24.6684 6.59549 24.9372C6.59459 25.8116 6.24686 26.6498 5.62861 27.2681C5.01036 27.8863 4.17208 28.2341 3.29774 28.235ZM31.8982 40.0007H1.01568C0.746841 40.0007 0.489015 39.8939 0.298919 39.7038C0.108822 39.5138 0.0020273 39.2559 0.0020273 38.9871C0.0020273 38.7183 0.108822 38.4604 0.298919 38.2703C0.489015 38.0802 0.746841 37.9734 1.01568 37.9734H31.8982C32.1671 37.9734 32.4249 38.0802 32.615 38.2703C32.8051 38.4604 32.9119 38.7183 32.9119 38.9871C32.9119 39.2559 32.8051 39.5138 32.615 39.7038C32.4249 39.8939 32.1671 40.0007 31.8982 40.0007ZM26.384 11.2144H21.1285C20.8597 11.2144 20.6019 11.1076 20.4118 10.9175C20.2217 10.7274 20.1149 10.4696 20.1149 10.2008C20.1149 9.93193 20.2217 9.6741 20.4118 9.484C20.6019 9.29391 20.8597 9.18711 21.1285 9.18711H26.384C26.6528 9.18711 26.9106 9.29391 27.1007 9.484C27.2908 9.6741 27.3976 9.93193 27.3976 10.2008C27.3976 10.4696 27.2908 10.7274 27.1007 10.9175C26.9106 11.1076 26.6528 11.2144 26.384 11.2144ZM31.6394 6.63204H21.1285C20.8597 6.63204 20.6019 6.52524 20.4118 6.33515C20.2217 6.14505 20.1149 5.88722 20.1149 5.61839C20.1149 5.34955 20.2217 5.09172 20.4118 4.90163C20.6019 4.71153 20.8597 4.60474 21.1285 4.60474H31.6394C31.9082 4.60474 32.1661 4.71153 32.3562 4.90163C32.5463 5.09172 32.6531 5.34955 32.6531 5.61839C32.6531 5.88722 32.5463 6.14505 32.3562 6.33515C32.1661 6.52524 31.9082 6.63204 31.6394 6.63204Z" fill="#0C374F"/>
</g>
</g>
<defs>
<clipPath id="clip0_19_4945">
<rect width="40" height="40" fill="white"/>
</clipPath>
</defs>
</svg>
